# xmcd
#
# Track frame offsets:
#	150
#	18692
#	38855
#	54375
#	75270
#	93277
#	111607
#	130692
#	148902
#	164027
#	181392
#	199462
#	222859
#	244957
#	252945
#	271530
#
# Disc length: 3857 seconds
#
# Revision: 0
# Processed by: cddbd v1.5.2PL0 Copyright (c) Steve Scherf et al.
# Submitted via: EZCDAudioConverter 1.3.4.1
#
DISCID=ea0f0f10
DTITLE=Baby Lee - Right Here For U
DYEAR=2001
DGENRE=Soul
TTITLE0=Cryin'
TTITLE1=Go On
TTITLE2=Tonight
TTITLE3=Here For U
TTITLE4=Blue Rain
TTITLE5=Goodbye
TTITLE6=When a Man Lies
TTITLE7=True Lies
TTITLE8=Sweet Lovin'
TTITLE9=Don't Hurt Me
TTITLE10=My Heart ( Skips a Beat )
TTITLE11=So Not to Worry
TTITLE12=Away
TTITLE13=What He Says
TTITLE14=Not This Time
TTITLE15=Goodbye ( Original Mix )
EXTD=
EXTT0=
EXTT1=
EXTT2=
EXTT3=
EXTT4=
EXTT5=
EXTT6=
EXTT7=
EXTT8=
EXTT9=
EXTT10=
EXTT11=
EXTT12=
EXTT13=
EXTT14=
EXTT15=
PLAYORDER=
